<?xml version="1.0" encoding="UTF-8"?>
<svg width="380px" height="55px" viewBox="0 0 380 55" version="1.1" xmlns="http://www.w3.org/2000/svg" xmlns:xlink="http://www.w3.org/1999/xlink">
    <defs></defs>
    <g stroke="none" stroke-width="1" fill="none" fill-rule="evenodd">
        <g transform="translate(0.000000, -1.000000)">
            <g transform="translate(0.000000, 1.000000)">
                <path d="M29.8811331,25.4876471 L24.6881586,32.0477451 C24.0110482,32.8781373 23.3339377,34.3092157 23.3339377,35.5914706 L23.3339377,36.2708824 L10.9898584,36.2708824 L10.9898584,34.5367647 C10.9898584,31.1440196 11.8176771,28.8059804 14.0750708,26.1659804 L19.3433994,19.9833333 C20.473711,18.7 21.3768839,16.9669608 21.3768839,15.7601961 C21.3768839,13.1212745 19.8719547,11.1617647 16.8610198,11.1617647 C13.6993768,11.1617647 12.3440793,13.1967647 12.3440793,15.9122549 L0,15.9122549 C0,5.65637255 7.75393768,-7.10542736e-15 16.8610198,-7.10542736e-15 C25.7420397,-7.10542736e-15 33.7209632,5.35441176 33.7209632,15.8356863 C33.7209632,19.7568627 31.9899717,22.7732353 29.8811331,25.4876471" id="Fill-1" fill="#C11725"></path>
                <path d="M17.1613598,54.3677157 C13.2472521,54.3677157 10.0113314,51.125951 10.0113314,47.2047745 C10.0113314,43.283598 13.2472521,40.0418333 17.1613598,40.0418333 C21.0754674,40.0418333 24.3124646,43.283598 24.3124646,47.2047745 C24.3124646,51.125951 21.0754674,54.3677157 17.1613598,54.3677157" id="Fill-2" fill="#C11725"></path>
                <polygon id="Fill-3" fill="#172F83" points="55.6991728 36.2708824 46.816 36.2708824 43.5058017 0.452941176 59.0104476 0.452941176"></polygon>
                <path d="M51.2575864,54.3677157 C47.3434788,54.3677157 44.1075581,51.125951 44.1075581,47.2047745 C44.1075581,43.283598 47.3434788,40.0418333 51.2575864,40.0418333 C55.1716941,40.0418333 58.4076147,43.283598 58.4076147,47.2047745 C58.4076147,51.125951 55.1716941,54.3677157 51.2575864,54.3677157" id="Fill-4" fill="#172F83"></path>
                <path d="M90.9129008,36.9962353 L90.9129008,29.2412353 C90.9129008,26.4243725 89.4564136,24.7862353 87.0547705,24.7862353 C84.8576601,24.7862353 82.9415127,26.4761373 82.9415127,29.3943725 L82.9415127,36.9962353 L81.6895581,36.9962353 L81.6895581,29.1635882 C81.6895581,26.4502549 80.2072351,24.7862353 77.8820227,24.7862353 C75.5568102,24.7862353 73.7170935,26.8341765 73.7170935,29.4709412 L73.7170935,36.9962353 L72.4651388,36.9962353 L72.4651388,23.9418235 L73.7170935,23.9418235 L73.7170935,26.2712353 C74.559983,24.9145686 75.7355071,23.635549 78.0607195,23.635549 C80.3353371,23.635549 81.740153,24.940451 82.456017,26.4502549 C83.2989065,24.9911373 84.7037224,23.635549 87.1570368,23.635549 C90.2487082,23.635549 92.1648555,25.8107451 92.1648555,29.0870196 L92.1648555,36.9962353 L90.9129008,36.9962353 Z" id="Fill-5" fill="#C11725"></path>
                <path d="M96.9465042,23.9422549 L98.1984589,23.9422549 L98.1984589,36.9966667 L96.9465042,36.9966667 L96.9465042,23.9422549 Z M96.7947195,18.8229412 L98.3534731,18.8229412 L98.3534731,20.5376471 L96.7947195,20.5376471 L96.7947195,18.8229412 Z" id="Fill-6" fill="#C11725"></path>
                <path d="M103.157836,18.8229412 L104.716589,18.8229412 L104.716589,20.5376471 L103.157836,20.5376471 L103.157836,18.8229412 Z M101.777779,41.1691176 C101.419309,41.1691176 101.11251,41.1432353 100.730357,41.0666667 L100.730357,39.9655882 C101.036079,40.0162745 101.47098,40.0421569 101.751943,40.0421569 C102.67234,40.0421569 103.310697,39.4533333 103.310697,38.225 L103.310697,23.9422549 L104.562652,23.9422549 L104.562652,38.1473529 C104.562652,40.1963725 103.463558,41.1691176 101.777779,41.1691176 L101.777779,41.1691176 Z" id="Fill-7" fill="#C11725"></path>
                <path d="M119.409348,36.9962353 L119.409348,29.2412353 C119.409348,26.5527059 117.902266,24.7862353 115.270255,24.7862353 C112.715751,24.7862353 110.747932,26.7317255 110.747932,29.4450588 L110.747932,36.9962353 L109.494901,36.9962353 L109.494901,23.9418235 L110.747932,23.9418235 L110.747932,26.3736863 C111.616657,24.838 113.072068,23.635549 115.448952,23.635549 C118.745156,23.635549 120.661303,25.8873137 120.661303,29.010451 L120.661303,36.9962353 L119.409348,36.9962353 Z" id="Fill-8" fill="#C11725"></path>
                <path d="M131.650085,25.2472647 C129.197847,25.2472647 126.872635,27.2952059 126.872635,30.3665784 C126.872635,33.4638333 129.197847,35.5117745 131.650085,35.5117745 C134.204589,35.5117745 136.30051,33.618049 136.30051,30.3924608 C136.30051,27.2445196 134.153994,25.2472647 131.650085,25.2472647 M132.007479,37.2782451 C129.554164,37.2782451 127.970652,35.9463824 126.949065,34.4624608 L126.949065,41.0915784 L124.981246,41.0915784 L124.981246,23.7633431 L126.949065,23.7633431 L126.949065,26.4249118 C128.022323,24.8374608 129.58,23.4807941 132.007479,23.4807941 C135.175581,23.4807941 138.318924,25.9903039 138.318924,30.3665784 C138.318924,34.718049 135.201416,37.2782451 132.007479,37.2782451" id="Fill-9" fill="#172F83"></path>
                <path d="M151.633994,29.6501765 C151.429462,27.2441961 150.049405,25.1444902 147.41847,25.1444902 C145.118017,25.1444902 143.381643,27.0651765 143.125439,29.6501765 L151.633994,29.6501765 Z M147.775864,35.5880196 C149.590822,35.5880196 150.867535,34.8460588 151.940793,33.7201765 L153.166912,34.8212549 C151.838527,36.3051765 150.229178,37.3027255 147.724193,37.3027255 C144.096431,37.3027255 141.132861,34.5128235 141.132861,30.3921373 C141.132861,26.5529216 143.815467,23.481549 147.469065,23.481549 C151.378867,23.481549 153.626572,26.6036078 153.626572,30.4945882 C153.626572,30.6746863 153.626572,30.8785098 153.601813,31.1082157 L143.125439,31.1082157 C143.406402,33.9757647 145.450652,35.5880196 147.775864,35.5880196 L147.775864,35.5880196 Z" id="Fill-10" fill="#172F83"></path>
                <path d="M159.046686,36.9962353 L157.078867,36.9962353 L157.078867,23.7628039 L159.046686,23.7628039 L159.046686,26.0663333 C159.915411,24.633098 161.294391,23.4802549 163.569008,23.4802549 C166.762946,23.4802549 168.628499,25.6317255 168.628499,28.7796667 L168.628499,36.9962353 L166.66068,36.9962353 L166.66068,29.2671176 C166.66068,26.8093725 165.332295,25.2726078 163.007082,25.2726078 C160.732465,25.2726078 159.046686,26.9366275 159.046686,29.4191765 L159.046686,36.9962353 Z" id="Fill-11" fill="#172F83"></path>
                <path d="M177.190878,37.2522549 C175.29949,37.2522549 173.204646,36.5102941 171.723399,35.3067647 L172.720227,33.8983333 C174.149802,34.9746078 175.734391,35.5882353 177.293144,35.5882353 C178.876657,35.5882353 180.026346,34.7697059 180.026346,33.4896078 L180.026346,33.4389216 C180.026346,32.1070588 178.467592,31.5958824 176.731218,31.1084314 C174.661133,30.5196078 172.36068,29.8035294 172.36068,27.3727451 L172.36068,27.3209804 C172.36068,25.0422549 174.252068,23.532451 176.858244,23.532451 C178.467592,23.532451 180.256714,24.0953922 181.610935,24.9915686 L180.716374,26.4754902 C179.490255,25.6828431 178.085439,25.1964706 176.807649,25.1964706 C175.248895,25.1964706 174.252068,26.015 174.252068,27.1160784 L174.252068,27.1678431 C174.252068,28.4209804 175.888329,28.9073529 177.650538,29.4454902 C179.694788,30.0591176 181.891898,30.8528431 181.891898,33.2340196 L181.891898,33.2847059 C181.891898,35.7931373 179.82289,37.2522549 177.190878,37.2522549" id="Fill-12" fill="#172F83"></path>
                <path d="M185.726346,23.7621569 L187.694164,23.7621569 L187.694164,36.9955882 L185.726346,36.9955882 L185.726346,23.7621569 Z M185.598244,18.6946078 L187.845949,18.6946078 L187.845949,20.8708824 L185.598244,20.8708824 L185.598244,18.6946078 Z" id="Fill-13" fill="#172F83"></path>
                <path d="M198.29864,25.2219216 C195.437337,25.2219216 193.469518,27.5006471 193.469518,30.3671176 C193.469518,33.2346667 195.564363,35.5371176 198.349235,35.5371176 C201.211615,35.5371176 203.204193,33.2594706 203.204193,30.4167255 C203.204193,27.525451 201.083513,25.2219216 198.29864,25.2219216 M198.29864,37.3025098 C194.338244,37.3025098 191.451105,34.180451 191.451105,30.4167255 C191.451105,26.6551569 194.364079,23.4813333 198.349235,23.4813333 C202.310708,23.4813333 205.222606,26.6044706 205.222606,30.3671176 C205.222606,34.1297647 202.284873,37.3025098 198.29864,37.3025098" id="Fill-14" fill="#172F83"></path>
                <path d="M218.462323,29.6501765 C218.25779,27.2441961 216.87881,25.1444902 214.246799,25.1444902 C211.946346,25.1444902 210.209972,27.0651765 209.953768,29.6501765 L218.462323,29.6501765 Z M214.604193,35.5880196 C216.418074,35.5880196 217.695864,34.8460588 218.769122,33.7201765 L219.995241,34.8212549 C218.666856,36.3051765 217.057507,37.3027255 214.553598,37.3027255 C210.924759,37.3027255 207.96119,34.5128235 207.96119,30.3921373 C207.96119,26.5529216 210.643796,23.481549 214.297394,23.481549 C218.207195,23.481549 220.454901,26.6036078 220.454901,30.4945882 C220.454901,30.6746863 220.454901,30.8785098 220.430142,31.1082157 L209.953768,31.1082157 C210.234731,33.9757647 212.27898,35.5880196 214.604193,35.5880196 L214.604193,35.5880196 Z" id="Fill-15" fill="#172F83"></path>
                <path d="M225.873938,36.9962353 L223.907195,36.9962353 L223.907195,23.7628039 L225.873938,23.7628039 L225.873938,26.0663333 C226.742663,24.633098 228.12272,23.4802549 230.397337,23.4802549 C233.590198,23.4802549 235.455751,25.6317255 235.455751,28.7796667 L235.455751,36.9962353 L233.487932,36.9962353 L233.487932,29.2671176 C233.487932,26.8093725 232.159547,25.2726078 229.834334,25.2726078 C227.560793,25.2726078 225.873938,26.9366275 225.873938,29.4191765 L225.873938,36.9962353 Z" id="Fill-16" fill="#172F83"></path>
                <path d="M245.680227,25.2219216 C242.817847,25.2219216 240.850028,27.5006471 240.850028,30.3671176 C240.850028,33.2346667 242.945949,35.5371176 245.730822,35.5371176 C248.592125,35.5371176 250.585779,33.2594706 250.585779,30.4167255 C250.585779,27.525451 248.465099,25.2219216 245.680227,25.2219216 M245.680227,37.3025098 C241.71983,37.3025098 238.831615,34.180451 238.831615,30.4167255 C238.831615,26.6551569 241.745666,23.4813333 245.730822,23.4813333 C249.691218,23.4813333 252.604193,26.6044706 252.604193,30.3671176 C252.604193,34.1297647 249.666459,37.3025098 245.680227,37.3025098" id="Fill-17" fill="#172F83"></path>
                <polygon id="Fill-18" fill="#172F83" points="265.177564 23.7628039 267.298244 23.7628039 261.549802 37.0986863 259.812351 37.0986863 254.088669 23.7628039 256.26102 23.7628039 260.706912 34.7444706"></polygon>
                <path d="M279.309688,29.6501765 C279.105156,27.2441961 277.726176,25.1444902 275.094164,25.1444902 C272.793711,25.1444902 271.057337,27.0651765 270.801133,29.6501765 L279.309688,29.6501765 Z M275.451558,35.5880196 C277.265439,35.5880196 278.543229,34.8460588 279.616487,33.7201765 L280.842606,34.8212549 C279.514221,36.3051765 277.904873,37.3027255 275.400963,37.3027255 C271.772125,37.3027255 268.808555,34.5128235 268.808555,30.3921373 C268.808555,26.5529216 271.491161,23.481549 275.144759,23.481549 C279.054561,23.481549 281.302266,26.6036078 281.302266,30.4945882 C281.302266,30.6746863 281.302266,30.8785098 281.277507,31.1082157 L270.801133,31.1082157 C271.082096,33.9757647 273.126346,35.5880196 275.451558,35.5880196 L275.451558,35.5880196 Z" id="Fill-19" fill="#172F83"></path>
                <path d="M286.72238,36.9962353 L284.755637,36.9962353 L284.755637,23.7628039 L286.72238,23.7628039 L286.72238,27.218098 C287.693371,25.0170196 289.609518,23.4306471 292.113428,23.533098 L292.113428,25.6576078 L291.960567,25.6576078 C289.073428,25.6576078 286.72238,27.7303529 286.72238,31.7237843 L286.72238,36.9962353 Z" id="Fill-20" fill="#172F83"></path>
                <polygon id="Fill-21" fill="#172F83" points="294.389122 25.4268235 294.389122 23.7628039 305.529688 23.7628039 305.529688 25.0170196 296.74017 35.3332941 305.529688 35.3332941 305.529688 36.9962353 294.083399 36.9962353 294.083399 35.7420196 302.846006 25.4268235"></polygon>
                <path d="M309.238187,23.7621569 L311.204929,23.7621569 L311.204929,36.9955882 L309.238187,36.9955882 L309.238187,23.7621569 Z M309.110085,18.6946078 L311.35779,18.6946078 L311.35779,20.8708824 L309.110085,20.8708824 L309.110085,18.6946078 Z" id="Fill-22" fill="#172F83"></path>
                <path d="M321.732975,37.303049 C317.874844,37.303049 314.96187,34.1551078 314.96187,30.4172647 C314.96187,26.6546176 317.874844,23.4807941 321.732975,23.4807941 C324.236884,23.4807941 325.795637,24.5311863 327.021756,25.8360882 L325.719207,27.2186373 C324.671785,26.1175588 323.496261,25.2224608 321.707139,25.2224608 C319.024533,25.2224608 316.980283,27.5001078 316.980283,30.3665784 C316.980283,33.2600098 319.076204,35.5365784 321.835241,35.5365784 C323.52102,35.5365784 324.824646,34.6921667 325.872068,33.5662843 L327.122946,34.7439314 C325.795637,36.2289314 324.211048,37.303049 321.732975,37.303049" id="Fill-23" fill="#172F83"></path>
                <path d="M332.338527,36.9962353 L330.371785,36.9962353 L330.371785,18.3102549 L332.338527,18.3102549 L332.338527,26.0663333 C333.207252,24.633098 334.587309,23.4802549 336.861926,23.4802549 C340.054788,23.4802549 341.92034,25.6317255 341.92034,28.7796667 L341.92034,36.9962353 L339.952521,36.9962353 L339.952521,29.2671176 C339.952521,26.8093725 338.624136,25.2726078 336.298924,25.2726078 C334.025382,25.2726078 332.338527,26.9366275 332.338527,29.4191765 L332.338527,36.9962353 Z" id="Fill-24" fill="#172F83"></path>
                <path d="M348.771105,33.2341275 C348.771105,34.8463824 349.665666,35.4352059 350.994051,35.4352059 C351.658244,35.4352059 352.22017,35.307951 352.911275,34.9747157 L352.911275,36.6635392 C352.22017,37.0226569 351.479547,37.2275588 350.534391,37.2275588 C348.413711,37.2275588 346.804363,36.1782451 346.804363,33.4897157 L346.804363,25.5028529 L344.964646,25.5028529 L344.964646,23.7633431 L346.804363,23.7633431 L346.804363,19.7699118 L348.771105,19.7699118 L348.771105,23.7633431 L352.96187,23.7633431 L352.96187,25.5028529 L348.771105,25.5028529 L348.771105,33.2341275 Z" id="Fill-25" fill="#172F83"></path>
                <polygon id="Fill-26" fill="#C11725" points="356.335581 36.9977451 358.022436 36.9977451 358.022436 34.8214706 356.335581 34.8214706"></polygon>
                <path d="M372.409688,36.9962353 L372.409688,29.2412353 C372.409688,26.5527059 370.90153,24.7862353 368.270595,24.7862353 C365.715014,24.7862353 363.748272,26.7317255 363.748272,29.4450588 L363.748272,36.9962353 L362.496317,36.9962353 L362.496317,23.9418235 L363.748272,23.9418235 L363.748272,26.3736863 C364.615921,24.838 366.072408,23.635549 368.449292,23.635549 C371.745496,23.635549 373.661643,25.8873137 373.661643,29.010451 L373.661643,36.9962353 L372.409688,36.9962353 Z" id="Fill-27" fill="#C11725"></path>
                <polygon id="Fill-28" fill="#C11725" points="378.340057 36.9966667 379.592011 36.9966667 379.592011 18.3106863 378.340057 18.3106863"></polygon>
            </g>
        </g>
    </g>
</svg>
