<?xml version="1.0" encoding="UTF-8"?>
<svg width="60px" height="60px" viewBox="0 0 60 60" version="1.1" xmlns="http://www.w3.org/2000/svg" xmlns:xlink="http://www.w3.org/1999/xlink">
    <g stroke="none" stroke-width="1" fill="none" fill-rule="evenodd">
        <g transform="translate(-380.000000, -362.000000)">
            <g transform="translate(380.000000, 362.000000)">
                <path d="M7.4988381,58.7426286 C4.05333333,58.7426286 1.25015238,55.9394476 1.25015238,52.4928952 L1.25015238,7.4992381 C1.25015238,4.05371429 4.05333333,1.24952381 7.4988381,1.24952381 L52.4935238,1.24952381 C55.9390476,1.24952381 58.7422857,4.05371429 58.7422857,7.4992381 L58.7422857,52.4928952 C58.7422857,55.9394476 55.9390476,58.7426286 52.4935238,58.7426286 L7.4988381,58.7426286 Z" id="Fill-1" fill="#FFFFFF"></path>
                <path d="M52.4931429,0 L7.49841905,0 C3.37460952,0 0,3.37466667 0,7.49942857 L0,52.4931048 C0,56.6179619 3.37460952,59.9925714 7.49841905,59.9925714 L52.4931429,59.9925714 C56.6179048,59.9925714 59.9925714,56.6179619 59.9925714,52.4931048 L59.9925714,7.49942857 C59.9925714,3.37466667 56.6179048,0 52.4931429,0 M52.4931429,2.49942857 C55.2497143,2.49942857 57.492,4.74285714 57.492,7.49942857 L57.492,52.4931048 C57.492,55.2497143 55.2497143,57.4931048 52.4931429,57.4931048 L7.49841905,57.4931048 C4.74179048,57.4931048 2.49946667,55.2497143 2.49946667,52.4931048 L2.49946667,7.49942857 C2.49946667,4.74285714 4.74179048,2.49942857 7.49841905,2.49942857 L52.4931429,2.49942857" id="Fill-2" fill="#2B358A"></path>
                <path d="M9.38508571,34.1900952 C9.38508571,34.8251429 9.87714286,35.3329524 10.5120571,35.3329524 C11.02,35.3329524 11.4327048,35.0472381 11.6390476,34.5710476 L12.416819,32.7457143 L17.3057143,32.7457143 L18.0517524,34.4918095 C18.2739619,34.999619 18.6549143,35.3329524 19.2262857,35.3329524 C19.8771429,35.3329524 20.3851429,34.8091429 20.3851429,34.1584762 C20.3851429,33.999619 20.3375238,33.8409524 20.2580952,33.6662857 L16.3850857,24.920381 C16.1152381,24.3171429 15.6390476,23.952 14.972381,23.952 L14.8295238,23.952 C14.1628571,23.952 13.6708,24.3171429 13.4009524,24.920381 L9.52794286,33.6662857 C9.44857143,33.8409524 9.38508571,34.015619 9.38508571,34.1900952 Z M13.321581,30.5870476 L14.8612762,26.920381 L16.4009524,30.5870476 L13.321581,30.5870476 Z" id="Fill-3" fill="#2B358A"></path>
                <path d="M27.3057143,35.4281905 C30.7342857,35.4281905 33.2262857,32.8409524 33.2262857,29.6822857 L33.2262857,29.6504762 C33.2262857,26.4918095 30.7660952,23.9361905 27.3375238,23.9361905 C23.9089524,23.9361905 21.4167619,26.5234286 21.4167619,29.6822857 L21.4167619,29.7139048 C21.4167619,32.8727619 23.8771429,35.4281905 27.3057143,35.4281905 Z M27.3375238,33.1742857 C25.3691429,33.1742857 23.972381,31.5870476 23.972381,29.6822857 L23.972381,29.6504762 C23.972381,27.7457143 25.3375238,26.1900952 27.3057143,26.1900952 C29.2739048,26.1900952 30.6708571,27.7775238 30.6708571,29.6822857 L30.6708571,29.7139048 C30.6708571,31.6186667 29.3057143,33.1742857 27.3375238,33.1742857 Z" id="Fill-4" fill="#2B358A"></path>
                <path d="M37.4961905,34.412381 C37.7184762,35.0314286 38.1786667,35.412381 38.7660952,35.412381 L39.02,35.412381 C39.6072381,35.412381 40.0518095,35.0472381 40.2739048,34.412381 L42.464381,28.0472381 L44.6548571,34.412381 C44.8771429,35.0472381 45.3215238,35.412381 45.9089524,35.412381 L46.1628571,35.412381 C46.7500952,35.412381 47.2104762,35.0314286 47.4327619,34.412381 L50.5438095,25.6822857 C50.5914286,25.5394286 50.6390476,25.3489524 50.6390476,25.2060952 C50.6390476,24.5394286 50.0994286,24.0314286 49.4327619,24.0314286 C48.8295238,24.0314286 48.4167619,24.4281905 48.2580952,24.904381 L46.0518095,31.7139048 L43.8295238,24.968 C43.6390476,24.3805714 43.2104762,23.999619 42.5914286,23.999619 L42.4009524,23.999619 C41.7819048,23.999619 41.3533333,24.3965714 41.1628571,24.968 L38.9405714,31.7139048 L36.7342857,24.904381 C36.575619,24.3965714 36.1152381,24.0314286 35.5438095,24.0314286 C34.8613333,24.0314286 34.2899048,24.5394286 34.2899048,25.2219048 C34.2899048,25.3647619 34.3375238,25.5394286 34.3851429,25.6822857 L37.4961905,34.412381 Z" id="Fill-5" fill="#2B358A"></path>
            </g>
        </g>
    </g>
</svg>
