<?xml version="1.0" encoding="UTF-8"?>
<svg width="60px" height="60px" viewBox="0 0 60 60" version="1.1" xmlns="http://www.w3.org/2000/svg" xmlns:xlink="http://www.w3.org/1999/xlink">
    <g stroke="none" stroke-width="1" fill="none" fill-rule="evenodd">
        <g transform="translate(-380.000000, -1594.000000)">
            <g transform="translate(350.000000, 1564.000000)">
                <g transform="translate(30.000000, 30.000000)">
                    <path d="M7.49872381,58.7423048 C4.05321905,58.7423048 1.25005714,55.9391238 1.25005714,52.4936381 L1.25005714,7.49885714 C1.25005714,4.05333333 4.05321905,1.25028571 7.49872381,1.25028571 L52.4935238,1.25028571 C55.9388571,1.25028571 58.7420952,4.05333333 58.7420952,7.49885714 L58.7420952,52.4936381 C58.7420952,55.9391238 55.9388571,58.7423048 52.4935238,58.7423048 L7.49872381,58.7423048 Z" fill="#FFFFFF"></path>
                    <path d="M52.4931429,0 L7.49841905,0 C3.37460952,0 0,3.37466667 0,7.49942857 L0,52.4931048 C0,56.6179619 3.37460952,59.9925714 7.49841905,59.9925714 L52.4931429,59.9925714 C56.6179048,59.9925714 59.9925714,56.6179619 59.9925714,52.4931048 L59.9925714,7.49942857 C59.9925714,3.37466667 56.6179048,0 52.4931429,0 M52.4931429,2.49942857 C55.2497143,2.49942857 57.492,4.74285714 57.492,7.49942857 L57.492,52.4931048 C57.492,55.2497143 55.2497143,57.4920381 52.4931429,57.4920381 L7.49841905,57.4920381 C4.74179048,57.4920381 2.49946667,55.2497143 2.49946667,52.4931048 L2.49946667,7.49942857 C2.49946667,4.74285714 4.74179048,2.49942857 7.49841905,2.49942857 L52.4931429,2.49942857" fill="#2B358A"></path>
                    <path d="M52.8352381,46.1373333 C52.8352381,49.5161714 50.095619,52.2569143 46.715619,52.2569143 C43.3358095,52.2569143 40.5971429,49.5161714 40.5971429,46.1373333 C40.5971429,42.7574476 43.3358095,40.0188571 46.715619,40.0188571 C50.095619,40.0188571 52.8352381,42.7574476 52.8352381,46.1373333" fill="#214185"></path>
                    <path d="M26.9935238,46.1373333 C26.9935238,49.5161714 24.2537143,52.2569143 20.8739048,52.2569143 C17.4950286,52.2569143 14.7553524,49.5161714 14.7553524,46.1373333 C14.7553524,42.7574476 17.4950286,40.0188571 20.8739048,40.0188571 C24.2537143,40.0188571 26.9935238,42.7574476 26.9935238,46.1373333" fill="#C81F34"></path>
                    <polygon fill="#214185" points="43.3232381 37.1337143 50.3253333 37.1337143 53.1095238 8.53371429 40.3222857 8.53371429"></polygon>
                    <path d="M6.74211429,20.6775238 L16.4585143,20.6775238 C16.4585143,20.6775238 17.1590476,16.6034286 20.2626667,17.2415238 C23.3674286,17.879619 24.9792381,20.2489524 21.8998095,24.1811429 C18.820419,28.1133333 15.9982095,30.171619 15.6161905,33.0329524 C15.2341714,35.8954286 15.5050857,37.2647619 15.5050857,37.2647619 L24.9293333,37.2647619 C24.9293333,37.2647619 25.2224762,36.135619 25.984381,35.0350476 C26.7474286,33.9346667 30.9632381,28.324 30.9632381,28.324 C30.9632381,28.324 37.0489524,21.7769524 31.2447619,12.8371429 C25.4394286,3.89657143 7.56645714,7.08704762 6.97491429,16.8457143 L6.74211429,20.6775238 Z" fill="#C81F34"></path>
                </g>
            </g>
        </g>
    </g>
</svg>
