<?xml version="1.0" encoding="UTF-8"?>
<svg width="60px" height="60px" viewBox="0 0 60 60" version="1.1" xmlns="http://www.w3.org/2000/svg" xmlns:xlink="http://www.w3.org/1999/xlink">
    <g stroke="none" stroke-width="1" fill="none" fill-rule="evenodd">
        <g transform="translate(-380.000000, -903.000000)">
            <g transform="translate(380.000000, 903.000000)">
                <path d="M7.49872381,58.7425143 C4.05321905,58.7425143 1.25005714,55.9393524 1.25005714,52.492781 L1.25005714,7.49904762 C1.25005714,4.05371429 4.05321905,1.24933333 7.49872381,1.24933333 L52.4935238,1.24933333 C55.9388571,1.24933333 58.7420952,4.05371429 58.7420952,7.49904762 L58.7420952,52.492781 C58.7420952,55.9393524 55.9388571,58.7425143 52.4935238,58.7425143 L7.49872381,58.7425143 Z" fill="#FFFFFF"></path>
                <path d="M52.4931429,0 L7.49841905,0 C3.37460952,0 0,3.37466667 0,7.49942857 L0,52.4931048 C0,56.6179619 3.37460952,59.9925714 7.49841905,59.9925714 L52.4931429,59.9925714 C56.6179048,59.9925714 59.9925714,56.6179619 59.9925714,52.4931048 L59.9925714,7.49942857 C59.9925714,3.37466667 56.6179048,0 52.4931429,0 M52.4931429,2.49942857 C55.2497143,2.49942857 57.4931429,4.74171429 57.4931429,7.49942857 L57.4931429,52.4931048 C57.4931429,55.2497143 55.2497143,57.4931048 52.4931429,57.4931048 L7.49841905,57.4931048 C4.74179048,57.4931048 2.49946667,55.2497143 2.49946667,52.4931048 L2.49946667,7.49942857 C2.49946667,4.74171429 4.74179048,2.49942857 7.49841905,2.49942857 L52.4931429,2.49942857" fill="#2B358A"></path>
                <path d="M49.7481905,23.9862857 C49.7481905,29.755619 40.8868571,34.4327619 29.9546667,34.4327619 C19.0223238,34.4327619 10.1609524,29.755619 10.1609524,23.9862857 C10.1609524,18.2169524 19.0223238,13.539619 29.9546667,13.539619 C40.8868571,13.539619 49.7481905,18.2169524 49.7481905,23.9862857" fill="#009CD7"></path>
                <path d="M45.1975238,28.1217143 C45.1975238,27.088 46.4632381,26.3386667 46.4632381,24.5186667 C46.4632381,19.9641905 39.0790476,16.2710476 29.9689524,16.2710476 C20.8588571,16.2710476 13.474819,19.9641905 13.474819,24.5186667 C13.474819,26.499619 14.3520571,27.1419048 14.3520571,28.1217143 C14.3520571,30.4053333 7.97535238,33.2413333 7.97535238,38.2645714 C7.97535238,45.857219 17.8229714,52.0106667 29.9689524,52.0106667 C42.1150476,52.0106667 51.9626667,45.857219 51.9626667,38.2645714 C51.9626667,33.1333333 45.1975238,30.2445714 45.1975238,28.1217143" fill="#585858"></path>
                <path d="M29.9689524,10.7140952 C29.9689524,12.2325714 28.7382857,13.4632381 27.219619,13.4632381 C25.7011429,13.4632381 24.4704762,12.2325714 24.4704762,10.7140952 C24.4704762,9.19561905 25.7011429,7.9647619 27.219619,7.9647619 C28.7382857,7.9647619 29.9689524,9.19561905 29.9689524,10.7140952" fill="#009CD7"></path>
                <path d="M35.4670476,10.7140952 C35.4670476,12.2325714 34.236381,13.4632381 32.7179048,13.4632381 C31.1994286,13.4632381 29.9687619,12.2325714 29.9687619,10.7140952 C29.9687619,9.19561905 31.1994286,7.9647619 32.7179048,7.9647619 C34.236381,7.9647619 35.4670476,9.19561905 35.4670476,10.7140952" fill="#009CD7"></path>
            </g>
        </g>
    </g>
</svg>
